<?xml version="1.0" encoding="utf-8"?>
<!-- Generator: Adobe Illustrator 18.0.0, SVG Export Plug-In . SVG Version: 6.00 Build 0)  -->
<!DOCTYPE svg PUBLIC "-//W3C//DTD SVG 1.1//EN" "http://www.w3.org/Graphics/SVG/1.1/DTD/svg11.dtd">
<svg version="1.1" id="Layer_1" xmlns="http://www.w3.org/2000/svg" xmlns:xlink="http://www.w3.org/1999/xlink" x="0px" y="0px"
	 width="244.4px" height="70.9px" viewBox="0 0 244.4 70.9" enable-background="new 0 0 244.4 70.9" xml:space="preserve">
<g>
	<g>
		<path fill="#595A5C" d="M62.1,69.2c0.1-1.8,0.2-12,0.2-15v-4.6c0-1-0.1-9.3-0.1-9.9c1.8,0,5.3,0.1,7.9,0.5
			c5.7,0.9,9.2,3.6,9.2,8.1c0,5.8-5.3,10.5-13.3,12.1v2.5c0,0.8,0,5.4,0.1,6.3H62.1z M66,57.4c5.3-1.1,9.2-3.8,9.2-8.5
			c0-1.3-0.7-6-9.2-6.2V57.4z"/>
		<path fill="#595A5C" d="M79.8,67.8c2.3-4.1,14.5-28,15.5-29.7h0.1c3.7,6,13.7,25,16.6,29.4l-3.6,2.4c-0.8-1.6-5.3-10.3-5.8-10.9
			l-14.7,0.6c-0.5,0.8-4,9-4.7,10.4L79.8,67.8z M101.3,56.3c-0.5-0.9-5.7-10.8-6.1-11.4c-0.6,0.9-5.5,11.3-5.9,12L101.3,56.3z"/>
		<path fill="#595A5C" d="M120.9,69.2c0.2-1.1,0.3-13.4,0.3-20.1v-6.3c-4.9,0-10.9,0.2-12,0.4v-3.6c1.7,0.3,11.7,0.5,12.2,0.5h3.7
			c0.8,0,10-0.2,11.9-0.5v3.6c-0.6-0.2-8.4-0.4-12-0.4v7c0,8.6,0.4,18.6,0.5,19.5H120.9z"/>
		<path fill="#595A5C" d="M142.1,69.2c0.1-1.9,0.1-11.7,0.1-12.8v-4.6c0-0.7-0.1-11.2-0.2-12.2h4.2c-0.1,0.8-0.2,9.4-0.2,10.1v3.3
			l18.8-0.8v-3.4c0-0.7-0.1-8.3-0.2-9.3h4.3c-0.1,1-0.3,12.4-0.3,13.4v4.2c0,0.5,0.1,11.1,0.2,11.9h-4.2c0.1-1.4,0.3-9,0.3-9.8V55
			l-18.8,0.8v2.7c0,1.9,0.1,9.7,0.2,10.6H142.1z"/>
		<path fill="#595A5C" d="M213.9,66.8c4.1-0.8,9.4-3,9.4-6.4c0-2.1-1.4-3.2-4.4-4.9c-3.6-1.9-6.1-3.7-6.1-6.7c0-4.5,6.3-8.6,12-9.9
			l0.9,3.3c-2.6,0.4-8.8,2.4-8.8,5.9c0,2.2,3,3.5,4.8,4.6c3.2,1.9,5.8,3.3,5.8,6.7c0,4.1-4.4,8.7-12.5,10.6L213.9,66.8z"/>
		<path fill="#595A5C" d="M192.4,38.5c10.7,1.8,16,6.7,16,14.9c0,7.5-4.6,12.8-13.8,16l-3.7,0.4c-6.7,0-11.4-3.5-14.2-10.4
			c-0.5-1.6-0.7-2.7-0.7-3.3v-1.1c0-4.7,2.5-9.3,7.5-13.8C186.9,39.4,189.9,38.5,192.4,38.5z M178.9,55.3
			c1.5,7.9,5.5,11.9,11.9,11.9h0.8c6,0,10.2-3.1,12.7-9.3c0.2-0.4,0.4-0.9,0.4-1.5V53c-1.9-6-3.5-8.9-4.9-8.9h-0.4
			c-0.8,0-2,4.6-3.7,13.8c-1.3,3.7-2.3,5.6-3,5.6h-0.4c-0.5,0-0.7-0.2-0.7-0.7c0.7-2.1,2.5-8.9,5.2-20.5c-0.8-0.5-1.5-0.7-2.2-0.7
			h-0.8c-2.7,10.8-4.3,16.5-4.8,17.1h-1.1c-0.5,0-0.7-0.2-0.7-0.7c2.5-8.9,3.7-14.1,3.7-15.7v-0.7h-2.2c-2.8,0-5.7,2.9-8.6,8.6
			C180.1,50.7,179.7,52.5,178.9,55.3z"/>
	</g>
	<g>
		<path fill="#929497" d="M51.7,46l13.2-27.5c3.9-8.1-2-17.5-11-17.4L8.6,1.3C2.5,1.3-1.2,8,2,13.1l21,34.4
			C29.8,58.5,46.1,57.7,51.7,46z"/>
		<path fill="#EB2227" d="M14.2,62.7L2.1,42.1C-0.9,36,3.6,29,10.3,29l34,0.1c4.5,0,7.3,5,5,8.9L34.6,62.6
			C29.5,70.9,18.4,71.4,14.2,62.7z"/>
	</g>
</g>
<text transform="matrix(1 0 0 1 226.1029 48.992)" fill="#ED1C24" font-family="'MyriadPro-Regular'" font-size="20">.ai</text>
</svg>
